<svg xmlns="http://www.w3.org/2000/svg" width="62.143" height="58" viewBox="0 0 62.143 58"><defs><style>.a{fill:#fff;}</style></defs><g transform="translate(0 -16)"><g transform="translate(0 16)"><g transform="translate(0 0)"><path class="a" d="M59.036,43.964V21.179A5.184,5.184,0,0,0,53.857,16H8.286a5.184,5.184,0,0,0-5.179,5.179V36.714A3.111,3.111,0,0,0,0,39.821V70.893A3.111,3.111,0,0,0,3.107,74H25.893A3.111,3.111,0,0,0,29,70.893h8.68a3.107,3.107,0,0,0,3-3.924L38.641,59.5h5.894V70.893A3.111,3.111,0,0,0,47.643,74H59.036a3.111,3.111,0,0,0,3.107-3.107V47.071A3.111,3.111,0,0,0,59.036,43.964ZM26.929,70.893a1.037,1.037,0,0,1-1.036,1.036H3.107a1.037,1.037,0,0,1-1.036-1.036V68.821H26.929Zm0-4.143H2.071V43.964H26.929Zm0-24.857H2.071V39.821a1.037,1.037,0,0,1,1.036-1.036H25.893a1.037,1.037,0,0,1,1.036,1.036ZM38.68,67.513a1.036,1.036,0,0,1-1,1.308H29V66.75h9.472ZM29,64.679V59.5h7.494l1.413,5.179Zm15.536-7.25H29V51.214H44.536Zm0-10.357v2.071H29V39.821a3.111,3.111,0,0,0-3.107-3.107H5.179V21.179a3.111,3.111,0,0,1,3.107-3.107H53.857a3.111,3.111,0,0,1,3.107,3.107V43.964H47.643A3.111,3.111,0,0,0,44.536,47.071ZM60.071,70.893a1.037,1.037,0,0,1-1.036,1.036H47.643a1.037,1.037,0,0,1-1.036-1.036V68.821H60.071Zm0-4.143H46.607V51.214H60.071Zm0-17.607H46.607V47.071a1.037,1.037,0,0,1,1.036-1.036H59.036a1.037,1.037,0,0,1,1.036,1.036Z" transform="translate(0 -16)"/></g></g><g transform="translate(5.482 54.624)"><g transform="translate(0 0)"><rect class="a" width="5.859" height="2.071" transform="translate(0 4.143) rotate(-45)"/></g></g><g transform="translate(9.624 49.445)"><g transform="translate(0 0)"><rect class="a" width="17.577" height="2.071" transform="translate(0 12.429) rotate(-45)"/></g></g><g transform="translate(11.695 46.34)"><g transform="translate(0 0)"><rect class="a" width="8.788" height="2.071" transform="translate(0 6.214) rotate(-45)"/></g></g><g transform="translate(48.98 53.591)"><g transform="translate(0 0)"><rect class="a" width="7.322" height="2.071" transform="translate(0 5.178) rotate(-45)"/></g></g><g transform="translate(51.051 57.738)"><g transform="translate(0 0)"><rect class="a" width="7.322" height="2.071" transform="translate(0 5.178) rotate(-45)"/></g></g><g transform="translate(27.231 27.697)"><g transform="translate(0 0)"><rect class="a" width="8.788" height="2.071" transform="translate(0 6.214) rotate(-45)"/></g></g><g transform="translate(36.553 25.625)"><g transform="translate(0 0)"><rect class="a" width="8.788" height="2.071" transform="translate(0 6.214) rotate(-45)"/></g></g><g transform="translate(30.338 33.912)"><g transform="translate(0 0)"><rect class="a" width="5.859" height="2.071" transform="translate(0 4.143) rotate(-45)"/></g></g><g transform="translate(35.51 21.485)"><g transform="translate(0 0)"><rect class="a" width="5.874" height="2.071" transform="translate(0 4.153) rotate(-45)"/></g></g><g transform="translate(7.41 20.085)"><g transform="translate(0 0)"><rect class="a" width="2" height="2" transform="translate(-0.268 -0.085)"/></g></g><g transform="translate(11.495 20.085)"><g transform="translate(0 0)"><rect class="a" width="2" height="2" transform="translate(-0.352 -0.085)"/></g></g><g transform="translate(15.579 20.085)"><g transform="translate(0 0)"><rect class="a" width="3" height="2" transform="translate(-0.437 -0.085)"/></g></g></g></svg>