<svg xmlns="http://www.w3.org/2000/svg" width="73.453" height="64.413" viewBox="0 0 73.453 64.413"><defs><style>.a{fill:#fff;fill-rule:evenodd;}</style></defs><path class="a" d="M6.944,33.253a1.437,1.437,0,0,1-2.14-.189L.334,27.737a1.435,1.435,0,1,1,2.2-1.842L4.73,28.51a32.211,32.211,0,0,1,63.452-3.23,1.437,1.437,0,0,1-2.809.607,29.335,29.335,0,0,0-57.8,3.091l2.855-2.4a1.435,1.435,0,0,1,1.842,2.2Zm19.566-4-1.562-4.782h7.474a1.438,1.438,0,0,0,0-2.876H24.009l-1.443-4.418a1.435,1.435,0,0,0-1.365-.992l-5.386,0a1.438,1.438,0,0,0,0,2.875h4.346l7.726,23.659a5.238,5.238,0,1,0,5.737,2.768h9.983a5.24,5.24,0,1,0,8.381-1.334,5.291,5.291,0,0,0-3.709-1.542H30.872l-.828-2.537,18.239,0a1.436,1.436,0,0,0,1.365-.992l5.065-15.511a1.439,1.439,0,0,0-1.335-1.972H43.924a1.438,1.438,0,0,0,0,2.876H51.4l-1.562,4.782ZM48.9,32.126H27.448L29.1,37.2H47.242ZM38.173,21.593a1.438,1.438,0,1,0,1.438,1.438A1.438,1.438,0,0,0,38.173,21.593ZM48.38,45.48a2.356,2.356,0,1,1-.263,0A1.718,1.718,0,0,1,48.38,45.48Zm-17.761.7a2.364,2.364,0,1,1-1.672-.693A2.357,2.357,0,0,1,30.619,46.176ZM63.026,37.83l2.855-2.4a29.334,29.334,0,0,1-57.8,3.091,1.436,1.436,0,0,0-2.808.606A32.21,32.21,0,0,0,68.722,35.9l2.195,2.615a1.435,1.435,0,0,0,2.2-1.842l-4.47-5.327a1.437,1.437,0,0,0-2.14-.189l-5.325,4.468a1.435,1.435,0,1,0,1.842,2.2Zm0,0" transform="translate(0)"/></svg>