<svg xmlns="http://www.w3.org/2000/svg" width="65" height="65" viewBox="0 0 65 65"><defs><style>.a{fill:#fff;}</style></defs><path class="a" d="M32.5,0A32.5,32.5,0,1,0,65,32.5,32.538,32.538,0,0,0,32.5,0Zm0,1.483A31.007,31.007,0,1,1,1.5,32.5,31.042,31.042,0,0,1,32.5,1.483Zm0,3.149A27.845,27.845,0,0,0,9.2,17.184c.655.021,1.285.04,1.808.04,2.915,0,7.414-.365,7.414-.365a1.151,1.151,0,0,1,.183,2.3s-1.509.2-3.189.285L25.573,49.624l6.094-18.3L27.319,19.44c-1.5-.088-2.925-.285-2.925-.285a1.151,1.151,0,0,1,.183-2.3s4.594.365,7.333.365c2.915,0,7.435-.365,7.435-.365a1.151,1.151,0,0,1,.183,2.3s-1.511.2-3.189.285L46.414,49.4,49.2,40.1c1.2-3.858,2.131-6.613,2.131-9a14.725,14.725,0,0,0-2.294-7.7c-1.413-2.3-2.744-4.243-2.744-6.54a4.81,4.81,0,0,1,4.672-4.936c.123,0,.246.014.365.02A27.769,27.769,0,0,0,32.5,4.631ZM56.956,19.114a21.6,21.6,0,0,1,.2,2.885,26.316,26.316,0,0,1-2.133,9.974L46.515,56.59A27.9,27.9,0,0,0,56.956,19.114ZM7.028,21.145a27.943,27.943,0,0,0,13.3,36.441Zm25.96,13.792L24.619,59.251A28.276,28.276,0,0,0,41.763,58.8a2.585,2.585,0,0,1-.2-.386Z"/></svg>